<svg xmlns="http://www.w3.org/2000/svg" viewBox="0 0 30 20" role="img" aria-label="United States">
  <rect width="30" height="20" rx="2" fill="#fff"/>
  <g fill="#b22234">
    <rect width="30" height="1.538"/>
    <rect y="3.077" width="30" height="1.538"/>
    <rect y="6.154" width="30" height="1.538"/>
    <rect y="9.231" width="30" height="1.538"/>
    <rect y="12.308" width="30" height="1.538"/>
    <rect y="15.385" width="30" height="1.538"/>
    <rect y="18.462" width="30" height="1.538"/>
  </g>
  <rect width="12.6" height="10.769" rx="1" fill="#3c3b6e"/>
  <g fill="#fff">
    <circle cx="1.5" cy="1.2" r=".35"/>
    <circle cx="3.6" cy="1.2" r=".35"/>
    <circle cx="5.7" cy="1.2" r=".35"/>
    <circle cx="7.8" cy="1.2" r=".35"/>
    <circle cx="9.9" cy="1.2" r=".35"/>
    <circle cx="12" cy="1.2" r=".35"/>
    <circle cx="2.55" cy="2.4" r=".35"/>
    <circle cx="4.65" cy="2.4" r=".35"/>
    <circle cx="6.75" cy="2.4" r=".35"/>
    <circle cx="8.85" cy="2.4" r=".35"/>
    <circle cx="10.95" cy="2.4" r=".35"/>
    <circle cx="1.5" cy="3.6" r=".35"/>
    <circle cx="3.6" cy="3.6" r=".35"/>
    <circle cx="5.7" cy="3.6" r=".35"/>
    <circle cx="7.8" cy="3.6" r=".35"/>
    <circle cx="9.9" cy="3.6" r=".35"/>
    <circle cx="12" cy="3.6" r=".35"/>
    <circle cx="2.55" cy="4.8" r=".35"/>
    <circle cx="4.65" cy="4.8" r=".35"/>
    <circle cx="6.75" cy="4.8" r=".35"/>
    <circle cx="8.85" cy="4.8" r=".35"/>
    <circle cx="10.95" cy="4.8" r=".35"/>
    <circle cx="1.5" cy="6" r=".35"/>
    <circle cx="3.6" cy="6" r=".35"/>
    <circle cx="5.7" cy="6" r=".35"/>
    <circle cx="7.8" cy="6" r=".35"/>
    <circle cx="9.9" cy="6" r=".35"/>
    <circle cx="12" cy="6" r=".35"/>
    <circle cx="2.55" cy="7.2" r=".35"/>
    <circle cx="4.65" cy="7.2" r=".35"/>
    <circle cx="6.75" cy="7.2" r=".35"/>
    <circle cx="8.85" cy="7.2" r=".35"/>
    <circle cx="10.95" cy="7.2" r=".35"/>
    <circle cx="1.5" cy="8.4" r=".35"/>
    <circle cx="3.6" cy="8.4" r=".35"/>
    <circle cx="5.7" cy="8.4" r=".35"/>
    <circle cx="7.8" cy="8.4" r=".35"/>
    <circle cx="9.9" cy="8.4" r=".35"/>
    <circle cx="12" cy="8.4" r=".35"/>
  </g>
</svg>
